<svg xmlns="http://www.w3.org/2000/svg" width="180" height="60" viewBox="0 0 180 60"><g transform="translate(-2.999 0.001)"><g transform="translate(2.999 -0.001)"><path d="M44.966,173.856,53.7,171.1q2.342-.739,2.348-2.48l.038-10.638q.006-1.739-2.336-1l-8.737,2.757q-2.342.738-2.348,2.48l-.038,10.637q-.006,1.741,2.336,1Zm0,0" transform="translate(-33.66 -121.66)" fill="#abad23" fill-rule="evenodd"/><path d="M92.135,2.152,92.146,13a1.892,1.892,0,0,0,2.142,2.138l10.843-.013a1.89,1.89,0,0,0,2.136-2.142l-.011-10.844A1.891,1.891,0,0,0,105.114,0L94.271.01a1.891,1.891,0,0,0-2.137,2.142Zm0,0" transform="translate(-71.96 0.001)" fill="#6399ae" fill-rule="evenodd"/><path d="M4.431,69.412a8.126,8.126,0,1,1-.124,9.027,8.121,8.121,0,0,1,.124-9.027Zm0,0" transform="translate(-2.999 -51.834)" fill="#f1b434" fill-rule="evenodd"/><path d="M178.949,73.322l.011,9.366a.668.668,0,0,0,.757.755l9.368-.01q5-.006,5-5.006l-.011-9.366a.668.668,0,0,0-.757-.755l-9.369.01q-5,.006-5,5.006Zm0,0" transform="translate(-139.125 -53.688)" fill="#7c6992" fill-rule="evenodd"/><path d="M152.511,172.238l-2.566-4.42-2.58-4.448a2.844,2.844,0,0,0-4.851-.051l-2.664,4.365-2.664,4.364a2.6,2.6,0,0,0-.035,2.722,2.751,2.751,0,0,0,2.407,1.392l5.253.07,5.22.069a2.757,2.757,0,0,0,2.449-1.334,2.6,2.6,0,0,0,.03-2.73Zm0,0" transform="translate(-106.503 -125.675)" fill="#cf4520" fill-rule="evenodd"/></g><path d="M2.938-1.5V-17.934a7.044,7.044,0,0,1,.6-3.008,4.347,4.347,0,0,1,1.63-1.769,4.2,4.2,0,0,1,1.144-.505,12.275,12.275,0,0,1,1.253-.337,11.115,11.115,0,0,1,1.411-.18q.827-.048,1.46-.072.852-.024,1.545-.024,2.81,0,6.582.144v1.42h-6.7q-1.557,0-2.7.1A5.789,5.789,0,0,0,5.919-21.11a3.12,3.12,0,0,0-.766,1.143,5.372,5.372,0,0,0-.4,1.624,21.95,21.95,0,0,0-.1,2.226v5.342h13.3v1.516H4.653v5.944a22.092,22.092,0,0,0,.1,2.238A4.052,4.052,0,0,0,5.919,1.654a3.851,3.851,0,0,0,1.314.674A8.766,8.766,0,0,0,9.155,2.7q1.01.084,2.7.084h6.7V4.253q-2.555.1-6.582.1A24.592,24.592,0,0,1,7.135,4a4.9,4.9,0,0,1-3.686-2.7A6.91,6.91,0,0,1,2.938-1.5Zm37.72,5.775H39v-13.5q0-1.047-.073-1.8a6,6,0,0,0-.742-2.719,4.158,4.158,0,0,0-2.166-1.612,12.557,12.557,0,0,0-4.064-.517,22.922,22.922,0,0,0-3.869.4,16.438,16.438,0,0,0-3.492.89q-.049,2.009-.049,3.742V4.277H22.895V-12.267q0-1.432.061-3.453a26.71,26.71,0,0,1,4.538-1.239,28.139,28.139,0,0,1,5.244-.481q4.477.072,6.132,1.684a5.2,5.2,0,0,1,.949,1.173,5.037,5.037,0,0,1,.523,1.438,9.44,9.44,0,0,1,.255,1.6q.061.818.061,1.769Zm12.73-9.349-6.144.241a16.473,16.473,0,0,0,.791,4.139A5.057,5.057,0,0,0,50.748,2.22,11.827,11.827,0,0,0,55.469,3a53.9,53.9,0,0,0,7.555-.638l.182,1.54q-2.153.313-4.234.493-1.947.168-4.635.168A8.527,8.527,0,0,1,48.23,2.533,7.232,7.232,0,0,1,46.624.162a16.857,16.857,0,0,1-1.095-6.606A22.426,22.426,0,0,1,46-11.485a8.333,8.333,0,0,1,1.557-3.357,6.23,6.23,0,0,1,2.865-1.979,13.624,13.624,0,0,1,4.447-.62q5.11,0,7.239,2.491a7.472,7.472,0,0,1,1.5,2.785,13.284,13.284,0,0,1,.468,3.748q0,1.071-.061,2.37-1.74.277-5.073.59T53.388-5.072ZM47.208-6.347l6.777-.313q4.343-.2,8.37-.674Q62.4-8,62.4-9.235a6.607,6.607,0,0,0-1.655-4.777q-1.776-1.865-5.876-1.865a11.318,11.318,0,0,0-3.772.529,5.094,5.094,0,0,0-2.36,1.672,6.228,6.228,0,0,0-.912,1.841A19.3,19.3,0,0,0,47.208-6.347Zm22.974-4.572v15.2H68.527V-12.387q0-1.432.061-3.453a17.613,17.613,0,0,1,7.847-1.6,19.14,19.14,0,0,1,2.02.1L78.3-15.756q-.864-.072-1.861-.072a17.549,17.549,0,0,0-3.188.3,13.533,13.533,0,0,0-3.017.866Q70.182-12.652,70.182-10.919Zm10.881-6.233h1.825L90.613.331,96.7-17.152h1.679L88.29,12.17H86.6l3.248-9.445Zm37.075,6.028V-.487q0,1.432-.061,3.453a21.17,21.17,0,0,1-8.577,1.6,21.22,21.22,0,0,1-3.8-.289,7.651,7.651,0,0,1-2.677-.987,4.221,4.221,0,0,1-1.661-1.913,7.486,7.486,0,0,1-.529-3.008q0-5.811,5.159-6.582a104.5,104.5,0,0,1,10.487-.674v-1.66a12.209,12.209,0,0,0-.11-1.769,3.591,3.591,0,0,0-1.168-2.37,4.882,4.882,0,0,0-2.1-.908,17.61,17.61,0,0,0-3.522-.283,50.876,50.876,0,0,0-7.02.674l-.17-1.516q2.385-.373,4.088-.541a35.609,35.609,0,0,1,3.735-.18,18.815,18.815,0,0,1,2.616.156,8.957,8.957,0,0,1,2.1.566,4.561,4.561,0,0,1,2.36,1.955A7.345,7.345,0,0,1,118.138-11.124Zm-1.655,9.217v-5.4a70.16,70.16,0,0,0-10.025.626,4.881,4.881,0,0,0-2.993,1.48,5.366,5.366,0,0,0-.937,3.5,4.682,4.682,0,0,0,1,3.285,3.374,3.374,0,0,0,1.363.854,15,15,0,0,0,4.648.553,20.505,20.505,0,0,0,6.9-1.155Q116.483-.175,116.483-1.907Z" transform="translate(64.861 47.829)" fill="#403a60"/></g></svg>